# xmcd
#
# Track frame offsets:
# 150
# 16322
# 31160
# 46227
# 59450
# 74360
# 87105
# 101725
# 113463
# 126669
# 145341
# 158921
# 174791
# 192005
# 207328
# 225702
# 238804
# 252946
# 268279
# 281631
# 298584
# 313059
# 328183
#
# Disc length: 4581 seconds
#
#
# Revision: 0
# Processed by: cddbd v1.5.1PL0 Copyright (c) Steve Scherf et al.
# Submitted via: FreeRIP 2.60 
#
DISCID=5611e317
DTITLE=Vários - Só Modão
DYEAR=2005
DGENRE=Country
TTITLE0=Reino Encantado
TTITLE1=Subime Renuncia
TTITLE2=Peito Sadio
TTITLE3=Saco de Ouro
TTITLE4=Cuitelinho
TTITLE5=Chalana
TTITLE6=Lembranças
TTITLE7=60 Dias Apaixonado
TTITLE8=Dama de Vermelho
TTITLE9=Colcha de Retalhos
TTITLE10=Vestido de Seda
TTITLE11=Prato do Dia
TTITLE12=Porta do Mundo
TTITLE13=Ipe Florido
TTITLE14=Falso Juramento
TTITLE15=Menino da Porteira
TTITLE16=Noite de Tortura
TTITLE17=O Começo do Fim
TTITLE18=Rei do Gado
TTITLE19=Boi Doente
TTITLE20=Poeira da Estrada
TTITLE21=Soberano
TTITLE22=Triangulo Mineiro
EXTD=
EXTT0=
EXTT1=
EXTT2=
EXTT3=
EXTT4=
EXTT5=
EXTT6=
EXTT7=
EXTT8=
EXTT9=
EXTT10=
EXTT11=
EXTT12=
EXTT13=
EXTT14=
EXTT15=
EXTT16=
EXTT17=
EXTT18=
EXTT19=
EXTT20=
EXTT21=
EXTT22=
PLAYORDER=
